# xmcd
#
# Track frame offsets:
# 150
# 12090
# 26965
# 43154
# 56090
# 66387
# 77254
# 88610
# 100340
# 119143
# 129236
# 142280
# 152776
#
# Disc length: 2224 seconds
#
# Revision: 1
# Processed by: cddbd v1.5.1PL0 Copyright (c) Steve Scherf et al.
# Submitted via: Axialis_AX_CDPlayer 2.6
#
DISCID=b808ae0d
DTITLE=Jim Lauderdale - The Hummingbirds
DYEAR=2002
DGENRE=Country
TTITLE0=Midnight Will Become Day
TTITLE1=There And Back Again
TTITLE2=I'm Happiest When I'm Moving
TTITLE3=It's A Trap
TTITLE4=Eternal
TTITLE5=Morning
TTITLE6=Hummingbird
TTITLE7=Let's Not Say It's Over
TTITLE8=I Know Better Now
TTITLE9=It's Worth Looking Up
TTITLE10=Jacob's Ladder
TTITLE11=Rollin' The Dice
TTITLE12=New Cascade
EXTD=
EXTT0=
EXTT1=
EXTT2=
EXTT3=
EXTT4=
EXTT5=
EXTT6=
EXTT7=
EXTT8=
EXTT9=
EXTT10=
EXTT11=
EXTT12=
PLAYORDER=
